PathFileType	4	(X/Y/Z)	/Users/itak/Documents/Research/Walk-IL/dataset/trc/00172_00008.trc
DataRate	CameraRate	NumFrames	NumMarkers	Units	OrigDataRate	OrigDataStartFrame	OrigNumFrames
100.000000	100.000000	4	53	mm	100.000000	506	579
Frame#	Time	RPSI			LPSI			L3			STRN			T10			C7			CLAV			RBAK			LBAK			LSHO			LUPA			LAEL			LAOL			LWTS			LWPS			LFRA			LIFD			LHPS			LHTS			RSHO			RUPA			RAEL			RAOL			RWTS			RWPS			RFRA			RIFD			RHTS			RHPS			RBHD			LFHD			RFHD			LBHD			LHIP			RHIP			RASI			LASI			LKNE			LTHI			LANK			LTIP			LTOE			LMT1			LMT5			LHEE			RKNE			RANK			RTIP			RTOE			RMT1			RMT5			RHEE			RTHI			
		X1	Y1	Z1	X2	Y2	Z2	X3	Y3	Z3	X4	Y4	Z4	X5	Y5	Z5	X6	Y6	Z6	X7	Y7	Z7	X8	Y8	Z8	X9	Y9	Z9	X10	Y10	Z10	X11	Y11	Z11	X12	Y12	Z12	X13	Y13	Z13	X14	Y14	Z14	X15	Y15	Z15	X16	Y16	Z16	X17	Y17	Z17	X18	Y18	Z18	X19	Y19	Z19	X20	Y20	Z20	X21	Y21	Z21	X22	Y22	Z22	X23	Y23	Z23	X24	Y24	Z24	X25	Y25	Z25	X26	Y26	Z26	X27	Y27	Z27	X28	Y28	Z28	X29	Y29	Z29	X30	Y30	Z30	X31	Y31	Z31	X32	Y32	Z32	X33	Y33	Z33	X34	Y34	Z34	X35	Y35	Z35	X36	Y36	Z36	X37	Y37	Z37	X38	Y38	Z38	X39	Y39	Z39	X40	Y40	Z40	X41	Y41	Z41	X42	Y42	Z42	X43	Y43	Z43	X44	Y44	Z44	X45	Y45	Z45	X46	Y46	Z46	X47	Y47	Z47	X48	Y48	Z48	X49	Y49	Z49	X50	Y50	Z50	X51	Y51	Z51	X52	Y52	Z52	X53	Y53	Z53	

507	5.06	-1032.579223632812	1064.603637695312	341.8936157226562	-1040.046875	1062.53076171875	218.203125	-1033.216064453125	1100.96337890625	281.3748779296875	-778.10205078125	1308.681518554688	254.339111328125	-1065.878784179688	1252.986572265625	277.544921875	-1011.208068847656	1525.867431640625	263.5469360351562	-811.2545166015625	1421.148193359375	247.8961639404297	-1063.156127929688	1346.209228515625	375.1427917480469	-1025.59521484375	1500.808349609375	162.5739593505859	-954.7052612304688	1488.412963867188	77.17411041259766	-992.5504150390625	1355.62158203125	7.094813823699951	-977.7832641601562	1138.918579101562	-13.47064018249512	-1014.050354003906	1121.42724609375	65.68684387207031	-846.5545043945312	917.0972290039062	1.032376646995544	-931.8399047851562	888.4285888671875	-26.80420303344727	-958.9942016601562	1029.333129882812	-29.62340354919434	-812.531982421875	733.773193359375	14.45962429046631	-904.072509765625	821.0397338867188	-26.73271942138672	-833.2335205078125	839.70166015625	-21.74764060974121	-933.7903442382812	1502.75732421875	438.1555786132812	-944.3448486328125	1432.73095703125	508.1849060058594	-933.1101684570312	1138.88720703125	553.1189575195312	-947.0725708007812	1134.644897460938	455.2380065917969	-757.9429321289062	943.2556762695312	506.3966979980469	-822.94921875	908.5562133789062	556.2960815429688	-895.9176635742188	1069.083129882812	564.0614013671875	-708.2102661132812	765.4296264648438	464.7427062988281	-712.960693359375	856.3550415039062	505.1531066894531	-779.1463623046875	832.5443725585938	543.269775390625	-952.390625	1684.298461914062	342.2410278320312	-813.529541015625	1744.815185546875	185.4701538085938	-789.1204833984375	1740.292846679688	313.1303405761719	-984.319091796875	1696.2236328125	208.2257080078125	-950.4462280273438	996.9398803710938	92.15554809570312	-872.5687255859375	1018.70458984375	455.1756286621094	-794.5527954101562	1045.279907226562	393.6023559570312	-821.603515625	1032.484741210938	137.4114227294922	-933.1384887695312	497.56298828125	133.6910095214844	-928.4855346679688	640.1340942382812	103.2136459350586	-1006.809692382812	39.23593139648438	145.0263214111328	-970.648193359375	276.4131774902344	126.4978256225586	-786.5741577148438	42.38956069946289	136.2489471435547	-827.2896118164062	44.14834213256836	191.2441864013672	-905.6094360351562	31.91878128051758	88.13853454589844	-1044.549072265625	40.21044540405273	223.8130950927734	-878.949462890625	519.4014892578125	431.8134155273438	-969.67724609375	36.85039138793945	426.5010681152344	-872.528564453125	400.0467529296875	413.2727966308594	-746.8110961914062	42.40038299560547	390.2251281738281	-801.8189086914062	41.07995223999023	344.8973083496094	-855.941650390625	35.61724853515625	460.442626953125	-1020.261169433594	36.71645736694336	357.8784790039062	-822.2885131835938	786.2990112304688	457.8436889648438	
508	5.07	-1032.683349609375	1064.526245117188	341.267822265625	-1039.9453125	1062.40380859375	217.5209197998047	-1033.277465820312	1100.837036132812	280.6893920898438	-778.0540771484375	1308.672729492188	254.0886993408203	-1066.020263671875	1252.851196289062	276.8558349609375	-1011.392272949219	1525.784301757812	262.8155517578125	-811.2298583984375	1421.128051757812	247.5211791992188	-1063.368896484375	1346.129150390625	374.4906005859375	-1025.6298828125	1500.633178710938	161.8670806884766	-954.5836791992188	1488.199951171875	76.55369567871094	-992.2674560546875	1355.346801757812	6.447813510894775	-977.2727661132812	1138.637939453125	-13.97819423675537	-1013.73779296875	1121.185668945312	65.1021728515625	-846.520751953125	916.5220336914062	0.761643648147583	-931.8677368164062	888.0729370117188	-27.20305824279785	-958.7044677734375	1029.041015625	-30.10476112365723	-813.0491333007812	733.1026000976562	14.25263595581055	-904.2548828125	820.6246337890625	-27.09841918945312	-833.3699951171875	839.0924072265625	-21.98555755615234	-934.1013793945312	1502.77978515625	437.5653076171875	-944.6950073242188	1432.78955078125	507.6504516601562	-933.1635131835938	1138.96435546875	552.6489868164062	-947.1289672851562	1134.669677734375	454.7818603515625	-758.1421508789062	943.1935424804688	505.9656372070312	-823.1268920898438	908.5986328125	555.9215087890625	-895.94482421875	1069.1748046875	563.6271362304688	-708.5211181640625	765.314208984375	464.4714050292969	-713.1689453125	856.2698364257812	504.8076171875	-779.3728637695312	832.5558471679688	542.9614868164062	-952.7932739257812	1684.281616210938	341.4896240234375	-813.80322265625	1744.75341796875	184.8252563476562	-789.5391235351562	1740.346923828125	312.5141906738281	-984.567626953125	1696.047607421875	207.3992919921875	-950.1046752929688	996.7998657226562	91.68320465087891	-872.981201171875	1018.70751953125	454.7417297363281	-794.740234375	1045.32861328125	393.3475341796875	-821.3408813476562	1032.440185546875	137.1311340332031	-933.2757568359375	497.5145874023438	133.5231323242188	-928.447021484375	640.053955078125	102.9725341796875	-1006.804809570312	39.22476577758789	145.0248413085938	-970.7155151367188	276.3904113769531	126.3722152709961	-786.593017578125	42.38130569458008	136.2483978271484	-827.295654296875	44.15166091918945	191.2417907714844	-905.6116333007812	31.90832138061523	88.13352203369141	-1044.572021484375	40.22428131103516	223.7893371582031	-879.0792236328125	519.4231567382812	431.6377868652344	-969.68896484375	36.87459564208984	426.4655456542969	-872.5741577148438	400.0726318359375	413.141845703125	-746.7998046875	42.38138580322266	390.2356262207031	-801.8096313476562	41.06525802612305	344.8972778320312	-855.9400024414062	35.61637115478516	460.4443054199219	-1020.240844726562	36.72132873535156	357.8423156738281	-822.4235229492188	786.3797607421875	457.6150512695312	
509	5.08	-1032.795776367188	1064.449951171875	340.6627502441406	-1039.845703125	1062.279174804688	216.8630218505859	-1033.327270507812	1100.72900390625	280.0413818359375	-778.0235595703125	1308.64990234375	253.8452606201172	-1066.144165039062	1252.732421875	276.1939392089844	-1011.551147460938	1525.723022460938	262.078125	-811.162841796875	1421.1025390625	247.1652069091797	-1063.573852539062	1346.072509765625	373.8512878417969	-1025.650634765625	1500.478881835938	161.1722717285156	-954.4306030273438	1487.982421875	75.94664764404297	-991.9756469726562	1355.05810546875	5.824880599975586	-976.795166015625	1138.3486328125	-14.46691036224365	-1013.439575195312	1120.941528320312	64.54560089111328	-846.5726928710938	915.9202880859375	0.4898699223995209	-931.9490356445312	887.7056884765625	-27.58073234558105	-958.4699096679688	1028.73828125	-30.57419586181641	-813.610107421875	732.4154663085938	14.05698776245117	-904.4752197265625	820.1892700195312	-27.43568420410156	-833.55615234375	838.4647216796875	-22.20831871032715	-934.366943359375	1502.817260742188	436.994140625	-945.0128784179688	1432.857299804688	507.1276245117188	-933.2430419921875	1139.065185546875	552.204345703125	-947.1962890625	1134.70654296875	454.3471374511719	-758.4741821289062	943.0242919921875	505.673583984375	-823.5149536132812	908.6007690429688	555.6925048828125	-896.04443359375	1069.28466796875	563.2405395507812	-709.0967407226562	765.0421752929688	464.4210815429688	-713.6056518554688	856.0545654296875	504.6375732421875	-779.8325805664062	832.501220703125	542.8199462890625	-953.1724243164062	1684.254150390625	340.7466125488281	-814.0570678710938	1744.69580078125	184.1931304931641	-789.9404907226562	1740.406860351562	311.91064453125	-984.7799682617188	1695.85888671875	206.5772399902344	-949.7597045898438	996.6591186523438	91.24303436279297	-873.4056396484375	1018.707885742188	454.341796875	-794.9317016601562	1045.377319335938	393.1321411132812	-821.0580444335938	1032.3896484375	136.8800201416016	-933.3855590820312	497.4659118652344	133.3672637939453	-928.4100952148438	639.9744873046875	102.7435760498047	-1006.798034667969	39.21103286743164	145.0252075195312	-970.775634765625	276.3649291992188	126.2540130615234	-786.6138305664062	42.37594604492188	136.2485656738281	-827.30224609375	44.15460205078125	191.2399749755859	-905.6149291992188	31.89948844909668	88.12960052490234	-1044.595092773438	40.23680877685547	223.7660675048828	-879.1937866210938	519.4381713867188	431.4668884277344	-969.7034301757812	36.89890670776367	426.4271240234375	-872.604736328125	400.0950012207031	413.0116882324219	-746.787841796875	42.36007308959961	390.2460327148438	-801.7987670898438	41.05014038085938	344.8969116210938	-855.9390869140625	35.61624526977539	460.4453735351562	-1020.218200683594	36.72377014160156	357.8019104003906	-822.6256103515625	786.4669799804688	457.5038757324219	
510	5.09	-1032.927368164062	1064.372436523438	340.0757141113281	-1039.7490234375	1062.159423828125	216.23828125	-1033.365234375	1100.639404296875	279.4398803710938	-778.0099487304688	1308.615112304688	253.6080322265625	-1066.252563476562	1252.634887695312	275.5636596679688	-1011.679077148438	1525.681762695312	261.3424682617188	-811.0614013671875	1421.074462890625	246.8245697021484	-1063.771606445312	1346.042114257812	373.2249755859375	-1025.647827148438	1500.342895507812	160.4875793457031	-954.2457885742188	1487.763793945312	75.35430908203125	-991.6705932617188	1354.758666992188	5.229191303253174	-976.3465576171875	1138.055297851562	-14.93474960327148	-1013.152160644531	1120.703247070312	64.01938629150391	-846.7135009765625	915.2959594726562	0.2203804403543472	-932.0753784179688	887.333740234375	-27.93841743469238	-958.2783203125	1028.430786132812	-31.02608489990234	-814.2075805664062	731.715576171875	13.88174343109131	-904.7357788085938	819.7421264648438	-27.745361328125	-833.7855224609375	837.8236694335938	-22.40971183776855	-934.5868530273438	1502.87109375	436.4411010742188	-945.2957763671875	1432.935424804688	506.6167907714844	-933.3528442382812	1139.189331054688	551.786376953125	-947.284423828125	1134.760375976562	453.9359130859375	-758.9328002929688	942.7618408203125	505.5215759277344	-824.1117553710938	908.5634155273438	555.6100463867188	-896.2261352539062	1069.41259765625	562.9028930664062	-709.924072265625	764.627197265625	464.5791015625	-714.2627563476562	855.7214965820312	504.635009765625	-780.5150146484375	832.3851928710938	542.8430786132812	-953.5264892578125	1684.215576171875	340.0133361816406	-814.2794189453125	1744.64013671875	183.5719604492188	-790.3222045898438	1740.473022460938	311.3196716308594	-984.956298828125	1695.658081054688	205.7601776123047	-949.4195556640625	996.5196533203125	90.83531951904297	-873.8316040039062	1018.705932617188	453.9856872558594	-795.1231079101562	1045.424072265625	392.9556579589844	-820.7659301757812	1032.328002929688	136.6569366455078	-933.4522705078125	497.4180603027344	133.216796875	-928.3638916015625	639.8975219726562	102.5240020751953	-1006.7919921875	39.19697570800781	145.0244598388672	-970.820068359375	276.3354187011719	126.1430511474609	-786.6349487304688	42.373291015625	136.2499389648438	-827.3091430664062	44.15656280517578	191.2395629882812	-905.6192626953125	31.89270973205566	88.12690734863281	-1044.616577148438	40.24758148193359	223.7432098388672	-879.2872314453125	519.4467163085938	431.2979736328125	-969.7200317382812	36.9227180480957	426.3866577148438	-872.6173706054688	400.1127014160156	412.8790283203125	-746.7744140625	42.33623504638672	390.2564392089844	-801.7869262695312	41.03466415405273	344.8963623046875	-855.9386596679688	35.61753082275391	460.4458923339844	-1020.194274902344	36.72436141967773	357.7570190429688	-822.8912353515625	786.553955078125	457.5054016113281	
